<svg xmlns="http://www.w3.org/2000/svg" viewBox="0 0 24 24" width="24" height="24">
  <path d="M13.19 15.3a.59.59 0 0 1-.35.53c-.1.04-.22.05-.33.02a3.22 3.22 0 0 1-1.2-.68.59.59 0 0 1-.16-.65l.5-1.57a.59.59 0 0 1 .75-.35c.23.08.46.18.68.3a.59.59 0 0 1 .26.77l-.15.63zm-2.47-5.38a.59.59 0 0 1-.2.8.59.59 0 0 1-.83-.2l-1.12-1.95a.59.59 0 0 1 .08-.65c.32-.38.8-.64 1.3-.7a.59.59 0 0 1 .62.57l.18 2.12zm4.06 2.48h2.2a.59.59 0 0 1 .56.4.59.59 0 0 1-.22.66c-.4.29-.85.5-1.33.6a.59.59 0 0 1-.67-.47l-.41-2a.59.59 0 0 1 .58-.7zM9.07 14.3c.4.29.75.64 1.04 1.04a.59.59 0 0 1-.1.82.59.59 0 0 1-.82-.1l-1.68-1.87a.59.59 0 0 1 .03-.83c.38-.35.8-.64 1.27-.88a.59.59 0 0 1 .79.25l.42.86a.59.59 0 0 1-.95.71zm9.08-1.7a9.88 9.88 0 0 1-2.16 3.5.59.59 0 0 1-.83.07.59.59 0 0 1-.07-.83 8.72 8.72 0 0 0 1.9-3.09.59.59 0 0 1 .73-.4.59.59 0 0 1 .43.74z" fill="#D32323"/>
</svg> 